<svg width="423" height="508" viewBox="0 0 423 508" fill="none" xmlns="http://www.w3.org/2000/svg">
<g filter="url(#filter0_d_9043_270120)">
<g clip-path="url(#clip0_9043_270120)">
<path d="M32 24C32 19.5817 35.5817 16 40 16H399C403.418 16 407 19.5817 407 24V468C407 472.418 403.418 476 399 476H40C35.5817 476 32 472.418 32 468V24Z" fill="#F0F0F0"/>
<g clip-path="url(#clip1_9043_270120)">
<rect width="375" height="812" transform="translate(32 16)" fill="#F0F0F0"/>
<path d="M57.1186 45V34.8182H60.8473C61.5698 34.8182 62.1681 34.9375 62.642 35.1761C63.116 35.4115 63.4706 35.7313 63.706 36.1357C63.9413 36.5367 64.0589 36.9891 64.0589 37.4929C64.0589 37.9171 63.9811 38.2751 63.8253 38.5668C63.6695 38.8551 63.4607 39.0871 63.1989 39.2628C62.9403 39.4351 62.6553 39.5611 62.3438 39.6406V39.7401C62.6818 39.7566 63.0116 39.866 63.3331 40.0682C63.6579 40.267 63.9264 40.5504 64.1385 40.9183C64.3506 41.2862 64.4567 41.7337 64.4567 42.2607C64.4567 42.781 64.334 43.2483 64.0888 43.6626C63.8468 44.0736 63.4723 44.4001 62.9652 44.642C62.4581 44.8807 61.8101 45 61.0213 45H57.1186ZM58.6548 43.6825H60.8722C61.608 43.6825 62.1349 43.54 62.4531 43.255C62.7713 42.9699 62.9304 42.6136 62.9304 42.1861C62.9304 41.8646 62.8492 41.5696 62.6868 41.3011C62.5244 41.0327 62.2924 40.8189 61.9908 40.6598C61.6925 40.5007 61.3378 40.4212 60.9268 40.4212H58.6548V43.6825ZM58.6548 39.223H60.7131C61.0578 39.223 61.3677 39.1567 61.6428 39.0241C61.9212 38.8916 62.1416 38.706 62.304 38.4673C62.4697 38.2254 62.5526 37.9403 62.5526 37.6122C62.5526 37.1913 62.4051 36.8383 62.1101 36.5533C61.8151 36.2682 61.3627 36.1257 60.7528 36.1257H58.6548V39.223ZM66.1594 45V37.3636H67.646V45H66.1594ZM66.9102 36.1854C66.6516 36.1854 66.4296 36.0992 66.244 35.9268C66.0617 35.7512 65.9705 35.5424 65.9705 35.3004C65.9705 35.0552 66.0617 34.8464 66.244 34.674C66.4296 34.4983 66.6516 34.4105 66.9102 34.4105C67.1687 34.4105 67.3891 34.4983 67.5714 34.674C67.757 34.8464 67.8498 35.0552 67.8498 35.3004C67.8498 35.5424 67.757 35.7512 67.5714 35.9268C67.3891 36.0992 67.1687 36.1854 66.9102 36.1854ZM73.2104 37.3636V38.5568H69.0392V37.3636H73.2104ZM70.1578 35.5341H71.6444V42.7578C71.6444 43.0462 71.6874 43.2633 71.7736 43.4091C71.8598 43.5516 71.9708 43.6494 72.1067 43.7024C72.2459 43.7521 72.3967 43.777 72.5591 43.777C72.6784 43.777 72.7828 43.7687 72.8723 43.7521C72.9618 43.7356 73.0314 43.7223 73.0811 43.7124L73.3496 44.9403C73.2634 44.9735 73.1408 45.0066 72.9817 45.0398C72.8226 45.0762 72.6238 45.0961 72.3851 45.0994C71.994 45.1061 71.6294 45.0365 71.2914 44.8906C70.9533 44.7448 70.6799 44.5194 70.4711 44.2145C70.2623 43.9096 70.1578 43.5268 70.1578 43.0661V35.5341ZM77.9893 45.1541C77.2502 45.1541 76.6139 44.9867 76.0803 44.652C75.55 44.3139 75.1423 43.8482 74.8572 43.255C74.5722 42.6617 74.4297 41.9822 74.4297 41.2166C74.4297 40.4411 74.5755 39.7566 74.8672 39.1634C75.1589 38.5668 75.5698 38.1011 76.1001 37.7663C76.6304 37.4316 77.2552 37.2642 77.9744 37.2642C78.5545 37.2642 79.0715 37.3719 79.5256 37.5874C79.9796 37.7995 80.3459 38.0978 80.6243 38.4822C80.906 38.8667 81.0734 39.3158 81.1264 39.8295H79.6797C79.6001 39.4716 79.4179 39.1634 79.1328 38.9048C78.8511 38.6463 78.4732 38.517 77.9993 38.517C77.585 38.517 77.2221 38.6264 76.9105 38.8452C76.6023 39.0606 76.362 39.3688 76.1896 39.7699C76.0173 40.1676 75.9311 40.6383 75.9311 41.1818C75.9311 41.7386 76.0156 42.2192 76.1847 42.6236C76.3537 43.0279 76.5923 43.3411 76.9006 43.5632C77.2121 43.7853 77.5784 43.8963 77.9993 43.8963C78.281 43.8963 78.5362 43.8449 78.7649 43.7422C78.9969 43.6361 79.1908 43.4853 79.3466 43.2898C79.5057 43.0942 79.6167 42.8589 79.6797 42.5838H81.1264C81.0734 43.0777 80.9126 43.5185 80.6442 43.9062C80.3757 44.294 80.0161 44.599 79.5653 44.821C79.1179 45.0431 78.5926 45.1541 77.9893 45.1541ZM85.9327 45.1541C85.2168 45.1541 84.592 44.9901 84.0584 44.6619C83.5248 44.3338 83.1105 43.8748 82.8155 43.2848C82.5205 42.6948 82.373 42.0054 82.373 41.2166C82.373 40.4245 82.5205 39.7318 82.8155 39.1385C83.1105 38.5452 83.5248 38.0845 84.0584 37.7564C84.592 37.4283 85.2168 37.2642 85.9327 37.2642C86.6486 37.2642 87.2734 37.4283 87.807 37.7564C88.3406 38.0845 88.7549 38.5452 89.0499 39.1385C89.3449 39.7318 89.4924 40.4245 89.4924 41.2166C89.4924 42.0054 89.3449 42.6948 89.0499 43.2848C88.7549 43.8748 88.3406 44.3338 87.807 44.6619C87.2734 44.9901 86.6486 45.1541 85.9327 45.1541ZM85.9377 43.9062C86.4017 43.9062 86.7862 43.7836 87.0911 43.5384C87.396 43.2931 87.6214 42.9666 87.7672 42.5589C87.9164 42.1513 87.9909 41.7022 87.9909 41.2116C87.9909 40.7244 87.9164 40.277 87.7672 39.8693C87.6214 39.4583 87.396 39.1286 87.0911 38.88C86.7862 38.6314 86.4017 38.5071 85.9377 38.5071C85.4703 38.5071 85.0826 38.6314 84.7743 38.88C84.4694 39.1286 84.2424 39.4583 84.0932 39.8693C83.9474 40.277 83.8745 40.7244 83.8745 41.2116C83.8745 41.7022 83.9474 42.1513 84.0932 42.5589C84.2424 42.9666 84.4694 43.2931 84.7743 43.5384C85.0826 43.7836 85.4703 43.9062 85.9377 43.9062ZM91.1516 45V37.3636H92.6381V45H91.1516ZM91.9023 36.1854C91.6438 36.1854 91.4218 36.0992 91.2362 35.9268C91.0539 35.7512 90.9627 35.5424 90.9627 35.3004C90.9627 35.0552 91.0539 34.8464 91.2362 34.674C91.4218 34.4983 91.6438 34.4105 91.9023 34.4105C92.1609 34.4105 92.3813 34.4983 92.5636 34.674C92.7492 34.8464 92.842 35.0552 92.842 35.3004C92.842 35.5424 92.7492 35.7512 92.5636 35.9268C92.3813 36.0992 92.1609 36.1854 91.9023 36.1854ZM96.1245 40.4659V45H94.638V37.3636H96.0648V38.6065H96.1593C96.3349 38.2022 96.61 37.8774 96.9846 37.6321C97.3624 37.3868 97.838 37.2642 98.4114 37.2642C98.9318 37.2642 99.3875 37.3736 99.7786 37.5923C100.17 37.8078 100.473 38.1293 100.688 38.5568C100.904 38.9844 101.012 39.513 101.012 40.1428V45H99.525V40.3217C99.525 39.7682 99.3809 39.3357 99.0925 39.0241C98.8042 38.7093 98.4081 38.5518 97.9043 38.5518C97.5596 38.5518 97.253 38.6264 96.9846 38.7756C96.7194 38.9247 96.5089 39.1435 96.3532 39.4318C96.2007 39.7169 96.1245 40.0616 96.1245 40.4659Z" fill="#2C232E"/>
<path d="M66.8182 85.3182C65.6212 85.3106 64.4659 85.1098 63.3523 84.7159C62.2462 84.322 61.2538 83.6818 60.375 82.7955C59.4962 81.9091 58.7992 80.7348 58.2841 79.2727C57.7765 77.8106 57.5227 76.0152 57.5227 73.8864C57.5303 71.9318 57.7538 70.1856 58.1932 68.6477C58.6402 67.1023 59.2765 65.7917 60.1023 64.7159C60.9356 63.6402 61.9318 62.822 63.0909 62.2614C64.25 61.6932 65.5492 61.4091 66.9886 61.4091C68.5417 61.4091 69.9129 61.7121 71.1023 62.3182C72.2917 62.9167 73.2462 63.7311 73.9659 64.7614C74.6932 65.7917 75.1326 66.947 75.2841 68.2273H70.4318C70.2424 67.4167 69.8447 66.7803 69.2386 66.3182C68.6326 65.8561 67.8826 65.625 66.9886 65.625C65.4735 65.625 64.322 66.2841 63.5341 67.6023C62.7538 68.9205 62.3561 70.7121 62.3409 72.9773H62.5C62.8485 72.2879 63.3182 71.7008 63.9091 71.2159C64.5076 70.7235 65.1856 70.3485 65.9432 70.0909C66.7083 69.8258 67.5152 69.6932 68.3636 69.6932C69.7424 69.6932 70.9697 70.0189 72.0455 70.6705C73.1212 71.3144 73.9697 72.2008 74.5909 73.3295C75.2121 74.4583 75.5227 75.75 75.5227 77.2045C75.5227 78.7803 75.1553 80.1818 74.4205 81.4091C73.6932 82.6364 72.6742 83.5985 71.3636 84.2955C70.0606 84.9848 68.5455 85.3258 66.8182 85.3182ZM66.7955 81.4545C67.553 81.4545 68.2311 81.2727 68.8295 80.9091C69.428 80.5455 69.8977 80.053 70.2386 79.4318C70.5795 78.8106 70.75 78.1136 70.75 77.3409C70.75 76.5682 70.5795 75.875 70.2386 75.2614C69.9053 74.6477 69.4432 74.1591 68.8523 73.7955C68.2614 73.4318 67.5871 73.25 66.8295 73.25C66.2614 73.25 65.7348 73.3561 65.25 73.5682C64.7727 73.7803 64.3523 74.0758 63.9886 74.4545C63.6326 74.8333 63.3523 75.2727 63.1477 75.7727C62.9432 76.2652 62.8409 76.7917 62.8409 77.3523C62.8409 78.1023 63.0114 78.7879 63.3523 79.4091C63.7008 80.0303 64.1705 80.5265 64.7614 80.8977C65.3598 81.2689 66.0379 81.4545 66.7955 81.4545ZM83.3494 81.8182L83.2244 83.0682C83.1259 84.0682 82.9366 85.0644 82.6562 86.0568C82.3835 87.0568 82.0956 87.9621 81.7926 88.7727C81.4972 89.5833 81.2585 90.2197 81.0767 90.6818H77.9403C78.054 90.2348 78.2093 89.6098 78.4062 88.8068C78.6032 88.0114 78.7888 87.1174 78.9631 86.125C79.1373 85.1326 79.2472 84.1212 79.2926 83.0909L79.3494 81.8182H83.3494ZM95.9176 85.5114C93.9631 85.5038 92.2813 85.0227 90.8722 84.0682C89.4706 83.1136 88.3911 81.7311 87.6335 79.9205C86.8835 78.1098 86.5123 75.9318 86.5199 73.3864C86.5199 70.8485 86.8949 68.6856 87.6449 66.8977C88.4025 65.1098 89.482 63.75 90.8835 62.8182C92.2926 61.8788 93.9706 61.4091 95.9176 61.4091C97.8646 61.4091 99.5388 61.8788 100.94 62.8182C102.349 63.7576 103.433 65.1212 104.19 66.9091C104.948 68.6894 105.323 70.8485 105.315 73.3864C105.315 75.9394 104.937 78.1212 104.179 79.9318C103.429 81.7424 102.353 83.125 100.952 84.0795C99.5502 85.0341 97.8722 85.5114 95.9176 85.5114ZM95.9176 81.4318C97.2509 81.4318 98.3153 80.7614 99.1108 79.4205C99.9063 78.0795 100.3 76.0682 100.293 73.3864C100.293 71.6212 100.111 70.1515 99.7472 68.9773C99.3911 67.803 98.8835 66.9205 98.2244 66.3295C97.5729 65.7386 96.804 65.4432 95.9176 65.4432C94.5919 65.4432 93.5313 66.1061 92.7358 67.4318C91.9403 68.7576 91.5388 70.7424 91.5312 73.3864C91.5312 75.1742 91.7093 76.6667 92.0653 77.8636C92.429 79.053 92.9403 79.947 93.5994 80.5455C94.2585 81.1364 95.0312 81.4318 95.9176 81.4318ZM117.756 85.3182C116.559 85.3106 115.403 85.1098 114.29 84.7159C113.184 84.322 112.191 83.6818 111.312 82.7955C110.434 81.9091 109.737 80.7348 109.222 79.2727C108.714 77.8106 108.46 76.0152 108.46 73.8864C108.468 71.9318 108.691 70.1856 109.131 68.6477C109.578 67.1023 110.214 65.7917 111.04 64.7159C111.873 63.6402 112.869 62.822 114.028 62.2614C115.188 61.6932 116.487 61.4091 117.926 61.4091C119.479 61.4091 120.85 61.7121 122.04 62.3182C123.229 62.9167 124.184 63.7311 124.903 64.7614C125.631 65.7917 126.07 66.947 126.222 68.2273H121.369C121.18 67.4167 120.782 66.7803 120.176 66.3182C119.57 65.8561 118.82 65.625 117.926 65.625C116.411 65.625 115.259 66.2841 114.472 67.6023C113.691 68.9205 113.294 70.7121 113.278 72.9773H113.438C113.786 72.2879 114.256 71.7008 114.847 71.2159C115.445 70.7235 116.123 70.3485 116.881 70.0909C117.646 69.8258 118.453 69.6932 119.301 69.6932C120.68 69.6932 121.907 70.0189 122.983 70.6705C124.059 71.3144 124.907 72.2008 125.528 73.3295C126.15 74.4583 126.46 75.75 126.46 77.2045C126.46 78.7803 126.093 80.1818 125.358 81.4091C124.631 82.6364 123.612 83.5985 122.301 84.2955C120.998 84.9848 119.483 85.3258 117.756 85.3182ZM117.733 81.4545C118.491 81.4545 119.169 81.2727 119.767 80.9091C120.366 80.5455 120.835 80.053 121.176 79.4318C121.517 78.8106 121.688 78.1136 121.688 77.3409C121.688 76.5682 121.517 75.875 121.176 75.2614C120.843 74.6477 120.381 74.1591 119.79 73.7955C119.199 73.4318 118.525 73.25 117.767 73.25C117.199 73.25 116.672 73.3561 116.188 73.5682C115.71 73.7803 115.29 74.0758 114.926 74.4545C114.57 74.8333 114.29 75.2727 114.085 75.7727C113.881 76.2652 113.778 76.7917 113.778 77.3523C113.778 78.1023 113.949 78.7879 114.29 79.4091C114.638 80.0303 115.108 80.5265 115.699 80.8977C116.297 81.2689 116.975 81.4545 117.733 81.4545ZM138.449 85.3182C136.843 85.3182 135.411 85.0227 134.153 84.4318C132.903 83.8409 131.911 83.0265 131.176 81.9886C130.441 80.9508 130.059 79.7614 130.028 78.4205H134.801C134.854 79.322 135.233 80.053 135.938 80.6136C136.642 81.1742 137.479 81.4545 138.449 81.4545C139.222 81.4545 139.903 81.2841 140.494 80.9432C141.093 80.5947 141.559 80.1136 141.892 79.5C142.233 78.8788 142.403 78.1667 142.403 77.3636C142.403 76.5455 142.229 75.8258 141.881 75.2045C141.54 74.5833 141.066 74.0985 140.46 73.75C139.854 73.4015 139.161 73.2235 138.381 73.2159C137.699 73.2159 137.036 73.3561 136.392 73.6364C135.756 73.9167 135.259 74.2992 134.903 74.7841L130.528 74L131.631 61.7273H145.858V65.75H135.688L135.085 71.5795H135.222C135.631 71.0038 136.248 70.5265 137.074 70.1477C137.9 69.7689 138.824 69.5795 139.847 69.5795C141.248 69.5795 142.498 69.9091 143.597 70.5682C144.695 71.2273 145.562 72.1326 146.199 73.2841C146.835 74.428 147.15 75.7462 147.142 77.2386C147.15 78.8068 146.786 80.2008 146.051 81.4205C145.324 82.6326 144.305 83.5871 142.994 84.2841C141.691 84.9735 140.176 85.3182 138.449 85.3182ZM152.699 85.2955C151.949 85.2955 151.305 85.0303 150.767 84.5C150.237 83.9621 149.972 83.3182 149.972 82.5682C149.972 81.8258 150.237 81.1894 150.767 80.6591C151.305 80.1288 151.949 79.8636 152.699 79.8636C153.426 79.8636 154.063 80.1288 154.608 80.6591C155.153 81.1894 155.426 81.8258 155.426 82.5682C155.426 83.0682 155.297 83.5265 155.04 83.9432C154.79 84.3523 154.46 84.6818 154.051 84.9318C153.642 85.1742 153.191 85.2955 152.699 85.2955ZM167.338 61.4091C168.535 61.4091 169.687 61.6098 170.793 62.0114C171.906 62.4129 172.899 63.053 173.77 63.9318C174.649 64.8106 175.342 65.9773 175.849 67.4318C176.365 68.8788 176.626 70.6553 176.634 72.7614C176.634 74.7386 176.41 76.5038 175.963 78.0568C175.524 79.6023 174.891 80.9167 174.065 82C173.24 83.0833 172.243 83.9091 171.077 84.4773C169.91 85.0379 168.607 85.3182 167.168 85.3182C165.615 85.3182 164.243 85.0189 163.054 84.4205C161.865 83.8144 160.906 82.9924 160.179 81.9545C159.459 80.9091 159.024 79.7348 158.872 78.4318H163.724C163.914 79.2803 164.312 79.9394 164.918 80.4091C165.524 80.8712 166.274 81.1023 167.168 81.1023C168.683 81.1023 169.834 80.4432 170.622 79.125C171.41 77.7992 171.808 75.9848 171.815 73.6818H171.656C171.308 74.3636 170.838 74.9508 170.247 75.4432C169.656 75.928 168.978 76.303 168.213 76.5682C167.455 76.8333 166.649 76.9659 165.793 76.9659C164.421 76.9659 163.198 76.6439 162.122 76C161.046 75.3561 160.198 74.4697 159.577 73.3409C158.955 72.2121 158.645 70.9242 158.645 69.4773C158.637 67.9167 158.997 66.5265 159.724 65.3068C160.452 64.0871 161.467 63.1326 162.77 62.4432C164.08 61.7462 165.603 61.4015 167.338 61.4091ZM167.372 65.2727C166.607 65.2727 165.925 65.4545 165.327 65.8182C164.736 66.1818 164.266 66.6705 163.918 67.2841C163.577 67.8977 163.41 68.5833 163.418 69.3409C163.418 70.1061 163.584 70.7955 163.918 71.4091C164.259 72.0152 164.721 72.5 165.304 72.8636C165.895 73.2197 166.569 73.3977 167.327 73.3977C167.895 73.3977 168.421 73.2917 168.906 73.0795C169.391 72.8674 169.812 72.5758 170.168 72.2045C170.531 71.8258 170.815 71.3902 171.02 70.8977C171.224 70.4053 171.327 69.8826 171.327 69.3295C171.319 68.5947 171.145 67.9205 170.804 67.3068C170.463 66.6932 169.993 66.2008 169.395 65.8295C168.796 65.4583 168.122 65.2727 167.372 65.2727ZM188.974 85.3182C187.777 85.3106 186.622 85.1098 185.509 84.7159C184.402 84.322 183.41 83.6818 182.531 82.7955C181.652 81.9091 180.955 80.7348 180.44 79.2727C179.933 77.8106 179.679 76.0152 179.679 73.8864C179.687 71.9318 179.91 70.1856 180.349 68.6477C180.796 67.1023 181.433 65.7917 182.259 64.7159C183.092 63.6402 184.088 62.822 185.247 62.2614C186.406 61.6932 187.705 61.4091 189.145 61.4091C190.698 61.4091 192.069 61.7121 193.259 62.3182C194.448 62.9167 195.402 63.7311 196.122 64.7614C196.849 65.7917 197.289 66.947 197.44 68.2273H192.588C192.399 67.4167 192.001 66.7803 191.395 66.3182C190.789 65.8561 190.039 65.625 189.145 65.625C187.63 65.625 186.478 66.2841 185.69 67.6023C184.91 68.9205 184.512 70.7121 184.497 72.9773H184.656C185.005 72.2879 185.474 71.7008 186.065 71.2159C186.664 70.7235 187.342 70.3485 188.099 70.0909C188.865 69.8258 189.671 69.6932 190.52 69.6932C191.899 69.6932 193.126 70.0189 194.202 70.6705C195.277 71.3144 196.126 72.2008 196.747 73.3295C197.368 74.4583 197.679 75.75 197.679 77.2045C197.679 78.7803 197.312 80.1818 196.577 81.4091C195.849 82.6364 194.83 83.5985 193.52 84.2955C192.217 84.9848 190.702 85.3258 188.974 85.3182ZM188.952 81.4545C189.709 81.4545 190.387 81.2727 190.986 80.9091C191.584 80.5455 192.054 80.053 192.395 79.4318C192.736 78.8106 192.906 78.1136 192.906 77.3409C192.906 76.5682 192.736 75.875 192.395 75.2614C192.062 74.6477 191.599 74.1591 191.009 73.7955C190.418 73.4318 189.743 73.25 188.986 73.25C188.418 73.25 187.891 73.3561 187.406 73.5682C186.929 73.7803 186.509 74.0758 186.145 74.4545C185.789 74.8333 185.509 75.2727 185.304 75.7727C185.099 76.2652 184.997 76.7917 184.997 77.3523C184.997 78.1023 185.168 78.7879 185.509 79.4091C185.857 80.0303 186.327 80.5265 186.918 80.8977C187.516 81.2689 188.194 81.4545 188.952 81.4545ZM223.938 69.7386L222.812 72.2273H207.619L208.54 69.7386H223.938ZM221.767 74.5L220.528 77.0455H207.619L208.54 74.5H221.767ZM226.892 63.5227L225.074 67.4091C224.771 67.197 224.403 66.9659 223.972 66.7159C223.547 66.4583 223.059 66.2424 222.506 66.0682C221.96 65.8864 221.354 65.7955 220.688 65.7955C219.634 65.7955 218.718 66.0606 217.938 66.5909C217.157 67.1212 216.551 67.947 216.119 69.0682C215.695 70.1894 215.483 71.6288 215.483 73.3864C215.483 75.1591 215.695 76.6023 216.119 77.7159C216.551 78.822 217.157 79.6364 217.938 80.1591C218.718 80.6742 219.634 80.9318 220.688 80.9318C221.354 80.9318 221.96 80.8447 222.506 80.6705C223.051 80.4962 223.528 80.2879 223.938 80.0455C224.354 79.803 224.703 79.5795 224.983 79.375L226.824 83.2614C225.998 83.9432 225.063 84.4583 224.017 84.8068C222.972 85.1477 221.862 85.3182 220.688 85.3182C218.703 85.3182 216.945 84.8485 215.415 83.9091C213.892 82.9621 212.699 81.6023 211.835 79.8295C210.972 78.0492 210.54 75.9015 210.54 73.3864C210.54 70.8788 210.972 68.7311 211.835 66.9432C212.699 65.1553 213.892 63.7879 215.415 62.8409C216.945 61.8864 218.703 61.4091 220.688 61.4091C221.907 61.4091 223.036 61.5909 224.074 61.9545C225.112 62.3182 226.051 62.8409 226.892 63.5227Z" fill="#2C232E"/>
<path d="M59.9922 110.354V103.632H61.3295V110.354H59.9922ZM57.3026 107.659V106.322H64.0241V107.659H57.3026ZM73.5534 111.139C72.8707 111.139 72.2608 111.022 71.7239 110.786C71.1903 110.551 70.7677 110.224 70.4561 109.807C70.1479 109.386 69.9822 108.899 69.959 108.345H71.5201C71.54 108.647 71.641 108.909 71.8233 109.131C72.0089 109.349 72.2509 109.518 72.5492 109.638C72.8475 109.757 73.1789 109.817 73.5435 109.817C73.9445 109.817 74.2992 109.747 74.6074 109.608C74.919 109.469 75.1626 109.275 75.3382 109.026C75.5139 108.774 75.6017 108.484 75.6017 108.156C75.6017 107.815 75.5139 107.515 75.3382 107.256C75.1659 106.995 74.9123 106.789 74.5776 106.64C74.2462 106.491 73.8451 106.416 73.3745 106.416H72.5144V105.163H73.3745C73.7523 105.163 74.0837 105.095 74.3688 104.96C74.6571 104.824 74.8825 104.635 75.0449 104.393C75.2073 104.147 75.2885 103.861 75.2885 103.533C75.2885 103.218 75.2173 102.944 75.0748 102.712C74.9355 102.477 74.7367 102.293 74.4782 102.161C74.223 102.028 73.9213 101.962 73.5733 101.962C73.2419 101.962 72.932 102.023 72.6436 102.146C72.3586 102.265 72.1266 102.437 71.9476 102.663C71.7686 102.885 71.6725 103.152 71.6593 103.463H70.1728C70.1893 102.913 70.3517 102.429 70.66 102.011C70.9715 101.594 71.3825 101.267 71.8929 101.032C72.4034 100.797 72.9701 100.679 73.5932 100.679C74.2462 100.679 74.8096 100.807 75.2836 101.062C75.7608 101.314 76.1287 101.65 76.3873 102.071C76.6491 102.492 76.7784 102.953 76.775 103.453C76.7784 104.023 76.6193 104.507 76.2978 104.905C75.9796 105.303 75.5553 105.569 75.025 105.705V105.785C75.7012 105.888 76.2248 106.156 76.5961 106.59C76.9706 107.024 77.1562 107.563 77.1529 108.206C77.1562 108.766 77.0004 109.268 76.6855 109.712C76.374 110.156 75.9481 110.506 75.4078 110.761C74.8676 111.013 74.2495 111.139 73.5534 111.139ZM82.5769 111.139C81.8941 111.139 81.2843 111.022 80.7473 110.786C80.2137 110.551 79.7911 110.224 79.4796 109.807C79.1713 109.386 79.0056 108.899 78.9824 108.345H80.5435C80.5634 108.647 80.6645 108.909 80.8468 109.131C81.0324 109.349 81.2743 109.518 81.5726 109.638C81.8709 109.757 82.2024 109.817 82.5669 109.817C82.968 109.817 83.3226 109.747 83.6309 109.608C83.9424 109.469 84.186 109.275 84.3617 109.026C84.5373 108.774 84.6252 108.484 84.6252 108.156C84.6252 107.815 84.5373 107.515 84.3617 107.256C84.1893 106.995 83.9358 106.789 83.601 106.64C83.2696 106.491 82.8685 106.416 82.3979 106.416H81.5378V105.163H82.3979C82.7757 105.163 83.1072 105.095 83.3922 104.96C83.6806 104.824 83.906 104.635 84.0684 104.393C84.2308 104.147 84.312 103.861 84.312 103.533C84.312 103.218 84.2407 102.944 84.0982 102.712C83.959 102.477 83.7601 102.293 83.5016 102.161C83.2464 102.028 82.9448 101.962 82.5968 101.962C82.2653 101.962 81.9554 102.023 81.6671 102.146C81.382 102.265 81.15 102.437 80.9711 102.663C80.7921 102.885 80.696 103.152 80.6827 103.463H79.1962C79.2128 102.913 79.3752 102.429 79.6834 102.011C79.995 101.594 80.406 101.267 80.9164 101.032C81.4268 100.797 81.9935 100.679 82.6167 100.679C83.2696 100.679 83.833 100.807 84.307 101.062C84.7843 101.314 85.1522 101.65 85.4107 102.071C85.6725 102.492 85.8018 102.953 85.7985 103.453C85.8018 104.023 85.6427 104.507 85.3212 104.905C85.003 105.303 84.5788 105.569 84.0485 105.705V105.785C84.7246 105.888 85.2483 106.156 85.6195 106.59C85.994 107.024 86.1796 107.563 86.1763 108.206C86.1796 108.766 86.0239 109.268 85.709 109.712C85.3974 110.156 84.9715 110.506 84.4313 110.761C83.891 111.013 83.2729 111.139 82.5769 111.139ZM87.8418 109.011V107.768L92.2417 100.818H93.2211V102.648H92.5996L89.4526 107.629V107.709H95.4831V109.011H87.8418ZM92.6692 111V108.634L92.6792 108.067V100.818H94.1358V111H92.6692ZM97.8322 111.094C97.5604 111.094 97.3268 110.998 97.1312 110.806C96.9357 110.611 96.8379 110.375 96.8379 110.1C96.8379 109.828 96.9357 109.596 97.1312 109.404C97.3268 109.209 97.5604 109.111 97.8322 109.111C98.104 109.111 98.3377 109.209 98.5332 109.404C98.7288 109.596 98.8265 109.828 98.8265 110.1C98.8265 110.282 98.7801 110.45 98.6873 110.602C98.5978 110.751 98.4785 110.871 98.3294 110.96C98.1802 111.05 98.0145 111.094 97.8322 111.094ZM100.798 111V109.886L104.243 106.317C104.611 105.929 104.914 105.589 105.153 105.298C105.395 105.003 105.575 104.723 105.695 104.457C105.814 104.192 105.874 103.911 105.874 103.612C105.874 103.274 105.794 102.982 105.635 102.737C105.476 102.489 105.259 102.298 104.984 102.165C104.709 102.03 104.399 101.962 104.054 101.962C103.69 101.962 103.371 102.036 103.1 102.185C102.828 102.335 102.619 102.545 102.473 102.817C102.327 103.089 102.254 103.407 102.254 103.771H100.788C100.788 103.152 100.93 102.61 101.215 102.146C101.5 101.682 101.892 101.322 102.389 101.067C102.886 100.808 103.451 100.679 104.084 100.679C104.724 100.679 105.287 100.807 105.774 101.062C106.265 101.314 106.648 101.658 106.923 102.096C107.198 102.53 107.335 103.021 107.335 103.567C107.335 103.945 107.264 104.315 107.122 104.676C106.982 105.037 106.739 105.44 106.391 105.884C106.043 106.325 105.559 106.86 104.939 107.49L102.916 109.608V109.683H107.499V111H100.798ZM112.928 111.139C112.246 111.139 111.636 111.022 111.099 110.786C110.565 110.551 110.143 110.224 109.831 109.807C109.523 109.386 109.357 108.899 109.334 108.345H110.895C110.915 108.647 111.016 108.909 111.198 109.131C111.384 109.349 111.626 109.518 111.924 109.638C112.222 109.757 112.554 109.817 112.919 109.817C113.32 109.817 113.674 109.747 113.982 109.608C114.294 109.469 114.538 109.275 114.713 109.026C114.889 108.774 114.977 108.484 114.977 108.156C114.977 107.815 114.889 107.515 114.713 107.256C114.541 106.995 114.287 106.789 113.953 106.64C113.621 106.491 113.22 106.416 112.749 106.416H111.889V105.163H112.749C113.127 105.163 113.459 105.095 113.744 104.96C114.032 104.824 114.258 104.635 114.42 104.393C114.582 104.147 114.664 103.861 114.664 103.533C114.664 103.218 114.592 102.944 114.45 102.712C114.311 102.477 114.112 102.293 113.853 102.161C113.598 102.028 113.296 101.962 112.948 101.962C112.617 101.962 112.307 102.023 112.019 102.146C111.734 102.265 111.502 102.437 111.323 102.663C111.144 102.885 111.048 103.152 111.034 103.463H109.548C109.564 102.913 109.727 102.429 110.035 102.011C110.347 101.594 110.758 101.267 111.268 101.032C111.778 100.797 112.345 100.679 112.968 100.679C113.621 100.679 114.185 100.807 114.659 101.062C115.136 101.314 115.504 101.65 115.762 102.071C116.024 102.492 116.153 102.953 116.15 103.453C116.153 104.023 115.994 104.507 115.673 104.905C115.355 105.303 114.93 105.569 114.4 105.705V105.785C115.076 105.888 115.6 106.156 115.971 106.59C116.346 107.024 116.531 107.563 116.528 108.206C116.531 108.766 116.375 109.268 116.061 109.712C115.749 110.156 115.323 110.506 114.783 110.761C114.243 111.013 113.624 111.139 112.928 111.139ZM128.516 104.388L128.043 105.412H121.506L121.879 104.388H128.516ZM127.626 106.406L127.143 107.44H121.506L121.879 106.406H127.626ZM129.729 101.688L129.142 102.946C128.956 102.787 128.754 102.643 128.536 102.513C128.317 102.384 128.081 102.281 127.83 102.205C127.578 102.126 127.308 102.086 127.019 102.086C126.489 102.086 126.017 102.228 125.602 102.513C125.188 102.799 124.862 103.226 124.623 103.796C124.388 104.363 124.27 105.069 124.27 105.914C124.27 106.759 124.388 107.465 124.623 108.032C124.862 108.599 125.188 109.025 125.602 109.31C126.017 109.591 126.489 109.732 127.019 109.732C127.311 109.732 127.583 109.694 127.835 109.618C128.09 109.542 128.322 109.442 128.531 109.32C128.743 109.194 128.933 109.061 129.102 108.922L129.704 110.175C129.353 110.493 128.945 110.733 128.481 110.896C128.017 111.058 127.53 111.139 127.019 111.139C126.187 111.139 125.45 110.929 124.807 110.508C124.167 110.087 123.665 109.487 123.3 108.708C122.936 107.926 122.754 106.995 122.754 105.914C122.754 104.83 122.936 103.897 123.3 103.115C123.665 102.333 124.167 101.731 124.807 101.31C125.45 100.889 126.187 100.679 127.019 100.679C127.549 100.679 128.043 100.767 128.501 100.942C128.958 101.115 129.367 101.363 129.729 101.688Z" fill="#1CC18C"/>
<path d="M138.992 110.354V103.632H140.33V110.354H138.992ZM136.303 107.659V106.322H143.024V107.659H136.303ZM148.664 111.139C148.041 111.139 147.481 111.02 146.984 110.781C146.49 110.539 146.096 110.208 145.801 109.787C145.506 109.366 145.348 108.885 145.328 108.345H146.82C146.856 108.783 147.05 109.142 147.402 109.424C147.753 109.706 148.174 109.847 148.664 109.847C149.056 109.847 149.402 109.757 149.703 109.578C150.008 109.396 150.247 109.146 150.419 108.827C150.595 108.509 150.683 108.146 150.683 107.739C150.683 107.324 150.593 106.955 150.414 106.63C150.235 106.305 149.989 106.05 149.674 105.864C149.362 105.679 149.004 105.584 148.6 105.581C148.292 105.581 147.982 105.634 147.67 105.74C147.359 105.846 147.107 105.985 146.914 106.158L145.507 105.949L146.079 100.818H151.677V102.136H147.357L147.034 104.984H147.093C147.292 104.792 147.556 104.631 147.884 104.502C148.215 104.373 148.57 104.308 148.948 104.308C149.568 104.308 150.119 104.456 150.603 104.751C151.091 105.046 151.473 105.448 151.752 105.959C152.033 106.466 152.173 107.049 152.169 107.709C152.173 108.368 152.024 108.957 151.722 109.474C151.424 109.991 151.009 110.398 150.479 110.697C149.952 110.992 149.347 111.139 148.664 111.139ZM154.615 111.094C154.344 111.094 154.11 110.998 153.914 110.806C153.719 110.611 153.621 110.375 153.621 110.1C153.621 109.828 153.719 109.596 153.914 109.404C154.11 109.209 154.344 109.111 154.615 109.111C154.887 109.111 155.121 109.209 155.316 109.404C155.512 109.596 155.61 109.828 155.61 110.1C155.61 110.282 155.563 110.45 155.471 110.602C155.381 110.751 155.262 110.871 155.113 110.96C154.963 111.05 154.798 111.094 154.615 111.094ZM160.778 111.139C160.155 111.139 159.594 111.02 159.097 110.781C158.603 110.539 158.209 110.208 157.914 109.787C157.619 109.366 157.462 108.885 157.442 108.345H158.933C158.97 108.783 159.164 109.142 159.515 109.424C159.866 109.706 160.287 109.847 160.778 109.847C161.169 109.847 161.515 109.757 161.817 109.578C162.122 109.396 162.36 109.146 162.533 108.827C162.708 108.509 162.796 108.146 162.796 107.739C162.796 107.324 162.707 106.955 162.528 106.63C162.349 106.305 162.102 106.05 161.787 105.864C161.475 105.679 161.117 105.584 160.713 105.581C160.405 105.581 160.095 105.634 159.783 105.74C159.472 105.846 159.22 105.985 159.028 106.158L157.621 105.949L158.192 100.818H163.79V102.136H159.47L159.147 104.984H159.207C159.406 104.792 159.669 104.631 159.997 104.502C160.329 104.373 160.683 104.308 161.061 104.308C161.681 104.308 162.233 104.456 162.717 104.751C163.204 105.046 163.587 105.448 163.865 105.959C164.147 106.466 164.286 107.049 164.283 107.709C164.286 108.368 164.137 108.957 163.835 109.474C163.537 109.991 163.123 110.398 162.592 110.697C162.065 110.992 161.46 111.139 160.778 111.139ZM169.961 100.818V111H168.42V102.359H168.361L165.925 103.95V102.479L168.465 100.818H169.961ZM178.03 109.091V108.554C178.03 108.17 178.11 107.818 178.269 107.5C178.431 107.179 178.667 106.922 178.975 106.729C179.287 106.534 179.663 106.436 180.104 106.436C180.554 106.436 180.932 106.532 181.237 106.724C181.542 106.917 181.772 107.174 181.928 107.495C182.087 107.817 182.167 108.17 182.167 108.554V109.091C182.167 109.475 182.087 109.828 181.928 110.15C181.769 110.468 181.535 110.725 181.227 110.92C180.922 111.113 180.548 111.209 180.104 111.209C179.656 111.209 179.278 111.113 178.97 110.92C178.662 110.725 178.428 110.468 178.269 110.15C178.11 109.828 178.03 109.475 178.03 109.091ZM179.189 108.554V109.091C179.189 109.376 179.257 109.634 179.393 109.866C179.528 110.098 179.765 110.214 180.104 110.214C180.438 110.214 180.672 110.098 180.805 109.866C180.937 109.634 181.003 109.376 181.003 109.091V108.554C181.003 108.269 180.939 108.01 180.809 107.778C180.684 107.546 180.448 107.43 180.104 107.43C179.772 107.43 179.537 107.546 179.398 107.778C179.258 108.01 179.189 108.269 179.189 108.554ZM172.91 103.264V102.727C172.91 102.343 172.989 101.99 173.148 101.668C173.311 101.347 173.546 101.09 173.854 100.898C174.166 100.705 174.542 100.609 174.983 100.609C175.434 100.609 175.811 100.705 176.116 100.898C176.421 101.09 176.652 101.347 176.807 101.668C176.963 101.99 177.041 102.343 177.041 102.727V103.264C177.041 103.649 176.961 104.002 176.802 104.323C176.647 104.641 176.415 104.898 176.106 105.094C175.801 105.286 175.427 105.382 174.983 105.382C174.532 105.382 174.153 105.286 173.844 105.094C173.539 104.898 173.307 104.641 173.148 104.323C172.989 104.002 172.91 103.649 172.91 103.264ZM174.073 102.727V103.264C174.073 103.549 174.139 103.808 174.272 104.04C174.408 104.272 174.645 104.388 174.983 104.388C175.314 104.388 175.546 104.272 175.679 104.04C175.815 103.808 175.883 103.549 175.883 103.264V102.727C175.883 102.442 175.818 102.184 175.689 101.952C175.559 101.72 175.324 101.604 174.983 101.604C174.651 101.604 174.416 101.72 174.277 101.952C174.141 102.184 174.073 102.442 174.073 102.727ZM173.382 111L180.382 100.818H181.57L174.57 111H173.382Z" fill="#2C232E"/>
<path d="M51.3948 319.319C47.2572 300.495 36.7409 300.167 32 302.356V362H502V-9H496.828L496.182 12.3407C496.182 30.3982 489.717 93.326 489.717 94.9676C489.717 96.6091 486.484 132.724 482.605 156.801C479.502 176.062 474.847 164.826 472.908 156.801C470.537 146.587 465.279 125.282 463.21 121.78C461.142 118.278 456.315 118.862 454.16 119.591C450.539 120.029 448.341 117.585 447.695 116.308L437.351 98.7979C433.73 93.5448 429.377 96.6091 427.653 98.7979L425.067 100.987C421.188 103.176 417.956 102.081 412.784 94.4204C408.646 88.2917 405.888 91.8668 405.026 94.4204C402.957 98.3602 399.854 122.145 397.915 134.913C395.329 159.537 388.217 187.991 384.985 197.841C382.399 202.218 378.304 199.665 376.58 197.841L370.116 191.274C364.426 185.583 359.125 188.903 357.186 191.274C354.384 194.557 348.005 201.89 344.902 204.954C341.799 208.019 336.282 206.231 333.912 204.954C328.223 201.452 323.784 205.319 322.275 207.69L316.457 216.993C311.285 225.31 305.682 220.458 303.527 216.993C303.01 216.555 297.277 208.785 294.476 204.954C293.442 203.203 290.166 199.847 288.658 198.388C280.9 191.822 271.633 195.652 267.97 198.388C266.418 199.263 261.72 203.13 259.565 204.954C253.876 210.207 248.144 207.143 245.989 204.954C244.481 203.495 240.429 199.263 236.292 194.01C232.154 188.757 226.379 191.822 224.008 194.01C216.768 199.263 205.044 194.375 200.088 191.274C189.227 185.146 172.289 204.042 165.177 214.257C157.42 224.325 146.429 224.653 141.904 223.559C129.62 220.276 127.034 224.653 125.095 226.842C123.696 228.421 110.872 253.108 109.579 255.297C108.286 257.485 99.2352 267.882 90.1843 243.258C81.1334 218.634 77.901 242.164 77.2545 245.447C76.608 248.73 69.4966 288.676 66.9106 313.299C64.3246 337.923 56.5667 342.848 51.3948 319.319Z" fill="#0038FF"/>
<path d="M325.343 353.119C324.757 353.119 324.235 353.018 323.775 352.817C323.317 352.615 322.955 352.335 322.688 351.977C322.424 351.616 322.282 351.199 322.262 350.724H323.6C323.617 350.983 323.703 351.207 323.86 351.398C324.019 351.585 324.226 351.73 324.482 351.832C324.738 351.935 325.022 351.986 325.334 351.986C325.678 351.986 325.982 351.926 326.246 351.807C326.513 351.687 326.722 351.521 326.873 351.308C327.023 351.092 327.098 350.844 327.098 350.562C327.098 350.27 327.023 350.013 326.873 349.791C326.725 349.567 326.507 349.391 326.221 349.263C325.936 349.135 325.593 349.071 325.189 349.071H324.452V347.997H325.189C325.513 347.997 325.797 347.939 326.042 347.822C326.289 347.706 326.482 347.544 326.621 347.337C326.76 347.126 326.83 346.881 326.83 346.599C326.83 346.33 326.769 346.095 326.647 345.896C326.527 345.695 326.357 345.537 326.135 345.423C325.917 345.31 325.658 345.253 325.36 345.253C325.076 345.253 324.81 345.305 324.563 345.411C324.319 345.513 324.12 345.661 323.966 345.854C323.813 346.044 323.73 346.273 323.719 346.54H322.445C322.459 346.068 322.598 345.653 322.863 345.295C323.13 344.937 323.482 344.658 323.919 344.456C324.357 344.254 324.843 344.153 325.377 344.153C325.936 344.153 326.419 344.263 326.826 344.482C327.235 344.697 327.55 344.986 327.772 345.347C327.996 345.707 328.107 346.102 328.104 346.531C328.107 347.02 327.971 347.435 327.695 347.776C327.422 348.116 327.059 348.345 326.604 348.462V348.53C327.184 348.618 327.632 348.848 327.951 349.22C328.272 349.592 328.431 350.054 328.428 350.605C328.431 351.085 328.297 351.516 328.027 351.896C327.76 352.277 327.395 352.577 326.932 352.795C326.469 353.011 325.939 353.119 325.343 353.119ZM333.077 353.145C332.404 353.142 331.828 352.964 331.351 352.612C330.874 352.26 330.509 351.747 330.256 351.074C330.003 350.401 329.877 349.589 329.877 348.641C329.877 347.695 330.003 346.886 330.256 346.216C330.512 345.545 330.878 345.034 331.355 344.682C331.836 344.33 332.409 344.153 333.077 344.153C333.745 344.153 334.317 344.331 334.794 344.686C335.272 345.038 335.637 345.55 335.89 346.22C336.145 346.888 336.273 347.695 336.273 348.641C336.273 349.592 336.147 350.405 335.894 351.078C335.641 351.749 335.276 352.261 334.799 352.616C334.321 352.969 333.748 353.145 333.077 353.145ZM333.077 352.007C333.668 352.007 334.13 351.719 334.462 351.142C334.797 350.565 334.965 349.732 334.965 348.641C334.965 347.916 334.888 347.304 334.735 346.804C334.584 346.301 334.367 345.92 334.083 345.662C333.801 345.401 333.466 345.27 333.077 345.27C332.489 345.27 332.027 345.56 331.692 346.139C331.357 346.719 331.188 347.553 331.185 348.641C331.185 349.368 331.26 349.983 331.411 350.486C331.564 350.986 331.782 351.365 332.063 351.624C332.344 351.879 332.682 352.007 333.077 352.007ZM341.817 353H340.419L343.56 344.273H345.081L348.222 353H346.824L344.357 345.858H344.289L341.817 353ZM342.051 349.582H346.586V350.69H342.051V349.582ZM349.38 355.455V346.455H350.624V347.516H350.731C350.805 347.379 350.911 347.222 351.05 347.043C351.19 346.864 351.383 346.707 351.63 346.574C351.877 346.438 352.204 346.369 352.61 346.369C353.138 346.369 353.61 346.503 354.025 346.77C354.44 347.037 354.765 347.422 355.001 347.925C355.239 348.428 355.359 349.033 355.359 349.74C355.359 350.447 355.241 351.054 355.005 351.56C354.769 352.062 354.445 352.45 354.033 352.723C353.621 352.993 353.151 353.128 352.623 353.128C352.225 353.128 351.9 353.061 351.647 352.928C351.397 352.794 351.201 352.638 351.059 352.459C350.917 352.28 350.808 352.121 350.731 351.982H350.654V355.455H349.38ZM350.629 349.727C350.629 350.187 350.695 350.591 350.829 350.938C350.962 351.284 351.156 351.555 351.408 351.751C351.661 351.945 351.971 352.041 352.337 352.041C352.718 352.041 353.036 351.94 353.292 351.739C353.548 351.534 353.741 351.257 353.871 350.908C354.005 350.558 354.072 350.165 354.072 349.727C354.072 349.295 354.006 348.908 353.876 348.564C353.748 348.22 353.555 347.949 353.296 347.75C353.04 347.551 352.721 347.452 352.337 347.452C351.968 347.452 351.656 347.547 351.4 347.737C351.147 347.928 350.955 348.193 350.825 348.534C350.694 348.875 350.629 349.273 350.629 349.727ZM356.786 353V346.455H358.018V347.494H358.086C358.205 347.142 358.415 346.865 358.717 346.663C359.021 346.459 359.364 346.357 359.748 346.357C359.827 346.357 359.921 346.359 360.029 346.365C360.14 346.371 360.227 346.378 360.289 346.386V347.605C360.238 347.591 360.147 347.575 360.016 347.558C359.886 347.538 359.755 347.528 359.624 347.528C359.323 347.528 359.055 347.592 358.819 347.72C358.586 347.845 358.401 348.02 358.265 348.244C358.129 348.466 358.06 348.719 358.06 349.003V353H356.786Z" fill="white"/>
<path d="M205.799 344.273V353H204.478V345.594H204.427L202.339 346.957V345.696L204.516 344.273H205.799ZM211.04 353.119C210.506 353.119 210.026 353.017 209.6 352.812C209.177 352.605 208.839 352.321 208.586 351.96C208.333 351.599 208.198 351.188 208.181 350.724H209.46C209.491 351.099 209.657 351.408 209.958 351.649C210.259 351.891 210.62 352.011 211.04 352.011C211.376 352.011 211.673 351.935 211.931 351.781C212.192 351.625 212.397 351.411 212.545 351.138C212.695 350.865 212.771 350.554 212.771 350.205C212.771 349.849 212.694 349.533 212.54 349.254C212.387 348.976 212.175 348.757 211.906 348.598C211.638 348.439 211.332 348.358 210.985 348.355C210.721 348.355 210.455 348.401 210.188 348.491C209.921 348.582 209.705 348.702 209.54 348.849L208.335 348.67L208.825 344.273H213.623V345.402H209.92L209.643 347.844H209.694C209.864 347.679 210.09 347.541 210.371 347.43C210.656 347.32 210.96 347.264 211.283 347.264C211.815 347.264 212.288 347.391 212.702 347.643C213.12 347.896 213.448 348.241 213.687 348.679C213.928 349.114 214.048 349.614 214.045 350.179C214.048 350.744 213.92 351.249 213.661 351.692C213.406 352.135 213.05 352.484 212.596 352.74C212.144 352.993 211.626 353.119 211.04 353.119ZM219.634 353H218.236L221.376 344.273H222.898L226.038 353H224.641L222.173 345.858H222.105L219.634 353ZM219.868 349.582H224.402V350.69H219.868V349.582ZM227.196 355.455V346.455H228.441V347.516H228.547C228.621 347.379 228.728 347.222 228.867 347.043C229.006 346.864 229.199 346.707 229.446 346.574C229.694 346.438 230.02 346.369 230.426 346.369C230.955 346.369 231.426 346.503 231.841 346.77C232.256 347.037 232.581 347.422 232.817 347.925C233.056 348.428 233.175 349.033 233.175 349.74C233.175 350.447 233.057 351.054 232.821 351.56C232.586 352.062 232.262 352.45 231.85 352.723C231.438 352.993 230.968 353.128 230.439 353.128C230.042 353.128 229.716 353.061 229.463 352.928C229.213 352.794 229.017 352.638 228.875 352.459C228.733 352.28 228.624 352.121 228.547 351.982H228.471V355.455H227.196ZM228.445 349.727C228.445 350.187 228.512 350.591 228.645 350.938C228.779 351.284 228.972 351.555 229.225 351.751C229.478 351.945 229.787 352.041 230.154 352.041C230.534 352.041 230.853 351.94 231.108 351.739C231.364 351.534 231.557 351.257 231.688 350.908C231.821 350.558 231.888 350.165 231.888 349.727C231.888 349.295 231.823 348.908 231.692 348.564C231.564 348.22 231.371 347.949 231.113 347.75C230.857 347.551 230.537 347.452 230.154 347.452C229.784 347.452 229.472 347.547 229.216 347.737C228.963 347.928 228.772 348.193 228.641 348.534C228.51 348.875 228.445 349.273 228.445 349.727ZM234.603 353V346.455H235.834V347.494H235.902C236.022 347.142 236.232 346.865 236.533 346.663C236.837 346.459 237.181 346.357 237.564 346.357C237.644 346.357 237.738 346.359 237.846 346.365C237.956 346.371 238.043 346.378 238.105 346.386V347.605C238.054 347.591 237.963 347.575 237.833 347.558C237.702 347.538 237.571 347.528 237.441 347.528C237.14 347.528 236.871 347.592 236.635 347.72C236.402 347.845 236.218 348.02 236.081 348.244C235.945 348.466 235.877 348.719 235.877 349.003V353H234.603Z" fill="white"/>
<path d="M91.5197 344.273V353H90.1987V345.594H90.1475L88.0595 346.957V345.696L90.237 344.273H91.5197ZM97.9128 353H96.5151L99.6557 344.273H101.177L104.318 353H102.92L100.453 345.858H100.384L97.9128 353ZM98.1472 349.582H102.681V350.69H98.1472V349.582ZM105.476 355.455V346.455H106.72V347.516H106.827C106.9 347.379 107.007 347.222 107.146 347.043C107.285 346.864 107.479 346.707 107.726 346.574C107.973 346.438 108.3 346.369 108.706 346.369C109.234 346.369 109.706 346.503 110.121 346.77C110.535 347.037 110.861 347.422 111.096 347.925C111.335 348.428 111.454 349.033 111.454 349.74C111.454 350.447 111.336 351.054 111.101 351.56C110.865 352.062 110.541 352.45 110.129 352.723C109.717 352.993 109.247 353.128 108.719 353.128C108.321 353.128 107.996 353.061 107.743 352.928C107.493 352.794 107.297 352.638 107.155 352.459C107.013 352.28 106.903 352.121 106.827 351.982H106.75V355.455H105.476ZM106.724 349.727C106.724 350.187 106.791 350.591 106.925 350.938C107.058 351.284 107.251 351.555 107.504 351.751C107.757 351.945 108.067 352.041 108.433 352.041C108.814 352.041 109.132 351.94 109.388 351.739C109.643 351.534 109.836 351.257 109.967 350.908C110.101 350.558 110.167 350.165 110.167 349.727C110.167 349.295 110.102 348.908 109.971 348.564C109.844 348.22 109.65 347.949 109.392 347.75C109.136 347.551 108.817 347.452 108.433 347.452C108.064 347.452 107.751 347.547 107.496 347.737C107.243 347.928 107.051 348.193 106.92 348.534C106.79 348.875 106.724 349.273 106.724 349.727ZM112.882 353V346.455H114.113V347.494H114.182C114.301 347.142 114.511 346.865 114.812 346.663C115.116 346.459 115.46 346.357 115.844 346.357C115.923 346.357 116.017 346.359 116.125 346.365C116.236 346.371 116.322 346.378 116.385 346.386V347.605C116.334 347.591 116.243 347.575 116.112 347.558C115.981 347.538 115.851 347.528 115.72 347.528C115.419 347.528 115.15 347.592 114.915 347.72C114.682 347.845 114.497 348.02 114.361 348.244C114.224 348.466 114.156 348.719 114.156 349.003V353H112.882Z" fill="white"/>
<line opacity="0.3" x1="32" y1="277.5" x2="407" y2="277.5" stroke="#2C232E" stroke-dasharray="10 10"/>
</g>
<rect x="56" y="372.205" width="52" height="23" rx="11.5" fill="#D4D3D4" fill-opacity="0.4"/>
<path d="M65.0265 380.611V379.477H71.7807V380.611H69.0577V388.205H67.7452V380.611H65.0265ZM74.9789 388.337C74.3652 388.337 73.8297 388.196 73.3723 387.915C72.915 387.634 72.5598 387.24 72.307 386.734C72.0542 386.229 71.9277 385.638 71.9277 384.962C71.9277 384.283 72.0542 383.689 72.307 383.18C72.5598 382.672 72.915 382.277 73.3723 381.996C73.8297 381.715 74.3652 381.574 74.9789 381.574C75.5925 381.574 76.128 381.715 76.5854 381.996C77.0428 382.277 77.3979 382.672 77.6507 383.18C77.9036 383.689 78.03 384.283 78.03 384.962C78.03 385.638 77.9036 386.229 77.6507 386.734C77.3979 387.24 77.0428 387.634 76.5854 387.915C76.128 388.196 75.5925 388.337 74.9789 388.337ZM74.9831 387.267C75.3809 387.267 75.7104 387.162 75.9718 386.952C76.2331 386.742 76.4263 386.462 76.5513 386.112C76.6792 385.763 76.7431 385.378 76.7431 384.957C76.7431 384.54 76.6792 384.156 76.5513 383.807C76.4263 383.455 76.2331 383.172 75.9718 382.959C75.7104 382.746 75.3809 382.639 74.9831 382.639C74.5826 382.639 74.2502 382.746 73.986 382.959C73.7246 383.172 73.53 383.455 73.4022 383.807C73.2772 384.156 73.2147 384.54 73.2147 384.957C73.2147 385.378 73.2772 385.763 73.4022 386.112C73.53 386.462 73.7246 386.742 73.986 386.952C74.2502 387.162 74.5826 387.267 74.9831 387.267ZM81.9025 388.332C81.3741 388.332 80.9025 388.197 80.4877 387.928C80.0758 387.655 79.752 387.267 79.5162 386.764C79.2832 386.259 79.1667 385.652 79.1667 384.945C79.1667 384.237 79.2846 383.632 79.5204 383.129C79.7591 382.626 80.0858 382.242 80.5005 381.974C80.9153 381.707 81.3855 381.574 81.911 381.574C82.3173 381.574 82.644 381.642 82.8912 381.778C83.1412 381.912 83.3343 382.068 83.4707 382.247C83.6099 382.426 83.7179 382.584 83.7946 382.72H83.8713V379.477H85.1454V388.205H83.9011V387.186H83.7946C83.7179 387.325 83.6071 387.484 83.4622 387.663C83.3201 387.842 83.1241 387.999 82.8741 388.132C82.6241 388.266 82.3002 388.332 81.9025 388.332ZM82.1838 387.246C82.5502 387.246 82.8599 387.149 83.1127 386.956C83.3684 386.76 83.5616 386.489 83.6923 386.142C83.8258 385.795 83.8926 385.392 83.8926 384.932C83.8926 384.477 83.8272 384.08 83.6966 383.739C83.5659 383.398 83.3741 383.132 83.1213 382.942C82.8684 382.751 82.5559 382.656 82.1838 382.656C81.8002 382.656 81.4806 382.756 81.225 382.955C80.9693 383.153 80.7761 383.425 80.6454 383.769C80.5176 384.112 80.4537 384.5 80.4537 384.932C80.4537 385.369 80.519 385.763 80.6497 386.112C80.7804 386.462 80.9735 386.739 81.2292 386.943C81.4877 387.145 81.8059 387.246 82.1838 387.246ZM88.8688 388.349C88.454 388.349 88.079 388.273 87.7438 388.119C87.4086 387.963 87.1429 387.737 86.9469 387.442C86.7537 387.146 86.6571 386.784 86.6571 386.355C86.6571 385.986 86.7282 385.682 86.8702 385.443C87.0123 385.205 87.204 385.016 87.4455 384.876C87.687 384.737 87.9569 384.632 88.2551 384.561C88.5534 384.49 88.8574 384.436 89.1671 384.399C89.5591 384.354 89.8773 384.317 90.1216 384.288C90.3659 384.257 90.5435 384.207 90.6543 384.139C90.7651 384.071 90.8205 383.96 90.8205 383.807V383.777C90.8205 383.405 90.7154 383.117 90.5051 382.912C90.2978 382.707 89.9881 382.605 89.5762 382.605C89.1472 382.605 88.8091 382.7 88.562 382.891C88.3176 383.078 88.1486 383.287 88.0549 383.517L86.8574 383.244C86.9995 382.847 87.2069 382.526 87.4796 382.281C87.7551 382.034 88.0719 381.855 88.4299 381.744C88.7878 381.631 89.1642 381.574 89.5591 381.574C89.8205 381.574 90.0975 381.605 90.3901 381.668C90.6855 381.727 90.9611 381.838 91.2168 382C91.4753 382.162 91.687 382.394 91.8517 382.695C92.0165 382.993 92.0989 383.381 92.0989 383.858V388.205H90.8546V387.31H90.8034C90.7211 387.474 90.5975 387.636 90.4327 387.795C90.2679 387.955 90.0563 388.087 89.7978 388.192C89.5392 388.297 89.2296 388.349 88.8688 388.349ZM89.1458 387.327C89.498 387.327 89.7992 387.257 90.0492 387.118C90.302 386.979 90.4938 386.797 90.6245 386.572C90.758 386.345 90.8248 386.102 90.8248 385.844V385C90.7793 385.045 90.6912 385.088 90.5605 385.128C90.4327 385.165 90.2864 385.197 90.1216 385.226C89.9569 385.251 89.7963 385.276 89.6401 385.298C89.4838 385.318 89.3532 385.335 89.248 385.349C89.0009 385.381 88.775 385.433 88.5705 385.507C88.3688 385.581 88.2069 385.688 88.0847 385.827C87.9654 385.963 87.9057 386.145 87.9057 386.372C87.9057 386.688 88.0222 386.926 88.2551 387.088C88.4881 387.247 88.785 387.327 89.1458 387.327ZM94.367 390.659C94.1767 390.659 94.0034 390.644 93.8471 390.612C93.6909 390.584 93.5744 390.553 93.4977 390.519L93.8045 389.474C94.0375 389.537 94.2449 389.564 94.4267 389.555C94.6085 389.547 94.769 389.479 94.9082 389.351C95.0502 389.223 95.1752 389.014 95.2832 388.724L95.4409 388.29L93.046 381.659H94.4096L96.0673 386.739H96.1355L97.7931 381.659H99.161L96.4636 389.078C96.3386 389.419 96.1795 389.707 95.9863 389.943C95.7931 390.182 95.563 390.361 95.296 390.48C95.0289 390.599 94.7193 390.659 94.367 390.659Z" fill="#2C232E"/>
<rect x="152" y="372.205" width="48" height="23" rx="11.5" fill="#D4D3D4" fill-opacity="0.4"/>
<path d="M162.742 388.205L160.321 379.477H161.706L163.407 386.236H163.488L165.256 379.477H166.628L168.397 386.24H168.478L170.174 379.477H171.563L169.138 388.205H167.813L165.976 381.668H165.908L164.071 388.205H162.742ZM174.838 388.337C174.193 388.337 173.637 388.199 173.172 387.923C172.708 387.645 172.35 387.254 172.098 386.751C171.848 386.246 171.723 385.653 171.723 384.974C171.723 384.304 171.848 383.713 172.098 383.202C172.35 382.69 172.703 382.291 173.154 382.004C173.609 381.717 174.14 381.574 174.748 381.574C175.118 381.574 175.475 381.635 175.822 381.757C176.169 381.879 176.48 382.071 176.755 382.332C177.031 382.594 177.248 382.933 177.407 383.351C177.566 383.766 177.646 384.27 177.646 384.864V385.315H172.443V384.361H176.397C176.397 384.026 176.329 383.729 176.193 383.47C176.056 383.209 175.865 383.003 175.618 382.852C175.373 382.702 175.086 382.626 174.757 382.626C174.399 382.626 174.086 382.715 173.819 382.891C173.555 383.064 173.35 383.291 173.206 383.572C173.064 383.851 172.993 384.153 172.993 384.48V385.226C172.993 385.663 173.069 386.036 173.223 386.342C173.379 386.649 173.596 386.884 173.875 387.045C174.153 387.205 174.478 387.284 174.85 387.284C175.092 387.284 175.312 387.25 175.511 387.182C175.71 387.111 175.882 387.006 176.027 386.867C176.172 386.727 176.282 386.555 176.359 386.351L177.565 386.568C177.468 386.923 177.295 387.234 177.045 387.501C176.798 387.766 176.487 387.972 176.112 388.119C175.74 388.264 175.315 388.337 174.838 388.337ZM181.881 388.337C181.236 388.337 180.68 388.199 180.214 387.923C179.751 387.645 179.393 387.254 179.141 386.751C178.891 386.246 178.766 385.653 178.766 384.974C178.766 384.304 178.891 383.713 179.141 383.202C179.393 382.69 179.746 382.291 180.197 382.004C180.652 381.717 181.183 381.574 181.791 381.574C182.161 381.574 182.518 381.635 182.865 381.757C183.212 381.879 183.523 382.071 183.798 382.332C184.074 382.594 184.291 382.933 184.45 383.351C184.609 383.766 184.689 384.27 184.689 384.864V385.315H179.486V384.361H183.44C183.44 384.026 183.372 383.729 183.236 383.47C183.099 383.209 182.908 383.003 182.661 382.852C182.416 382.702 182.129 382.626 181.8 382.626C181.442 382.626 181.129 382.715 180.862 382.891C180.598 383.064 180.393 383.291 180.249 383.572C180.107 383.851 180.036 384.153 180.036 384.48V385.226C180.036 385.663 180.112 386.036 180.266 386.342C180.422 386.649 180.639 386.884 180.918 387.045C181.196 387.205 181.521 387.284 181.893 387.284C182.135 387.284 182.355 387.25 182.554 387.182C182.753 387.111 182.925 387.006 183.07 386.867C183.214 386.727 183.325 386.555 183.402 386.351L184.608 386.568C184.511 386.923 184.338 387.234 184.088 387.501C183.841 387.766 183.53 387.972 183.155 388.119C182.783 388.264 182.358 388.337 181.881 388.337ZM187.275 385.984L187.266 384.429H187.488L190.096 381.659H191.621L188.647 384.813H188.446L187.275 385.984ZM186.103 388.205V379.477H187.377V388.205H186.103ZM190.236 388.205L187.892 385.094L188.77 384.203L191.8 388.205H190.236Z" fill="#2C232E"/>
<rect x="244" y="373.205" width="53" height="21" rx="10.5" fill="#2C232E"/>
<path d="M252.961 379.477H254.559L257.337 386.261H257.439L260.218 379.477H261.816V388.205H260.563V381.889H260.482L257.908 388.192H256.868L254.295 381.885H254.214V388.205H252.961V379.477ZM266.385 388.337C265.771 388.337 265.236 388.196 264.779 387.915C264.321 387.634 263.966 387.24 263.713 386.734C263.46 386.229 263.334 385.638 263.334 384.962C263.334 384.283 263.46 383.689 263.713 383.18C263.966 382.672 264.321 382.277 264.779 381.996C265.236 381.715 265.771 381.574 266.385 381.574C266.999 381.574 267.534 381.715 267.992 381.996C268.449 382.277 268.804 382.672 269.057 383.18C269.31 383.689 269.436 384.283 269.436 384.962C269.436 385.638 269.31 386.229 269.057 386.734C268.804 387.24 268.449 387.634 267.992 387.915C267.534 388.196 266.999 388.337 266.385 388.337ZM266.389 387.267C266.787 387.267 267.117 387.162 267.378 386.952C267.639 386.742 267.833 386.462 267.958 386.112C268.085 385.763 268.149 385.378 268.149 384.957C268.149 384.54 268.085 384.156 267.958 383.807C267.833 383.455 267.639 383.172 267.378 382.959C267.117 382.746 266.787 382.639 266.389 382.639C265.989 382.639 265.656 382.746 265.392 382.959C265.131 383.172 264.936 383.455 264.808 383.807C264.683 384.156 264.621 384.54 264.621 384.957C264.621 385.378 264.683 385.763 264.808 386.112C264.936 386.462 265.131 386.742 265.392 386.952C265.656 387.162 265.989 387.267 266.389 387.267ZM272.133 384.318V388.205H270.858V381.659H272.081V382.724H272.162C272.313 382.378 272.549 382.099 272.87 381.889C273.194 381.679 273.601 381.574 274.093 381.574C274.539 381.574 274.93 381.668 275.265 381.855C275.6 382.04 275.86 382.315 276.045 382.682C276.229 383.048 276.322 383.501 276.322 384.041V388.205H275.047V384.195C275.047 383.72 274.924 383.349 274.677 383.082C274.43 382.813 274.09 382.678 273.658 382.678C273.363 382.678 273.1 382.742 272.87 382.869C272.643 382.997 272.462 383.185 272.329 383.432C272.198 383.676 272.133 383.972 272.133 384.318ZM281.086 381.659V382.682H277.51V381.659H281.086ZM278.469 380.091H279.743V386.283C279.743 386.53 279.78 386.716 279.854 386.841C279.928 386.963 280.023 387.047 280.14 387.092C280.259 387.135 280.388 387.156 280.528 387.156C280.63 387.156 280.719 387.149 280.796 387.135C280.873 387.121 280.932 387.109 280.975 387.101L281.205 388.153C281.131 388.182 281.026 388.21 280.89 388.239C280.753 388.27 280.583 388.287 280.378 388.29C280.043 388.295 279.731 388.236 279.441 388.111C279.151 387.986 278.917 387.793 278.738 387.531C278.559 387.27 278.469 386.942 278.469 386.547V380.091ZM283.91 384.318V388.205H282.636V379.477H283.893V382.724H283.974C284.127 382.372 284.362 382.092 284.677 381.885C284.992 381.678 285.404 381.574 285.913 381.574C286.362 381.574 286.754 381.666 287.089 381.851C287.427 382.036 287.688 382.311 287.873 382.678C288.061 383.041 288.154 383.496 288.154 384.041V388.205H286.88V384.195C286.88 383.715 286.757 383.342 286.509 383.078C286.262 382.811 285.919 382.678 285.478 382.678C285.177 382.678 284.907 382.742 284.669 382.869C284.433 382.997 284.247 383.185 284.11 383.432C283.977 383.676 283.91 383.972 283.91 384.318Z" fill="#F0F0F0"/>
<rect x="341" y="372.205" width="42" height="23" rx="11.5" fill="#D4D3D4" fill-opacity="0.4"/>
<path d="M349.477 379.477H350.973L353.252 383.445H353.346L355.626 379.477H357.122L353.956 384.778V388.205H352.643V384.778L349.477 379.477ZM360.006 388.337C359.361 388.337 358.805 388.199 358.339 387.923C357.876 387.645 357.518 387.254 357.266 386.751C357.016 386.246 356.891 385.653 356.891 384.974C356.891 384.304 357.016 383.713 357.266 383.202C357.518 382.69 357.871 382.291 358.322 382.004C358.777 381.717 359.308 381.574 359.916 381.574C360.286 381.574 360.643 381.635 360.99 381.757C361.337 381.879 361.648 382.071 361.923 382.332C362.199 382.594 362.416 382.933 362.575 383.351C362.734 383.766 362.814 384.27 362.814 384.864V385.315H357.611V384.361H361.565C361.565 384.026 361.497 383.729 361.361 383.47C361.224 383.209 361.033 383.003 360.786 382.852C360.541 382.702 360.254 382.626 359.925 382.626C359.567 382.626 359.254 382.715 358.987 382.891C358.723 383.064 358.518 383.291 358.374 383.572C358.232 383.851 358.161 384.153 358.161 384.48V385.226C358.161 385.663 358.237 386.036 358.391 386.342C358.547 386.649 358.764 386.884 359.043 387.045C359.321 387.205 359.646 387.284 360.018 387.284C360.26 387.284 360.48 387.25 360.679 387.182C360.878 387.111 361.05 387.006 361.195 386.867C361.339 386.727 361.45 386.555 361.527 386.351L362.733 386.568C362.636 386.923 362.463 387.234 362.213 387.501C361.966 387.766 361.655 387.972 361.28 388.119C360.908 388.264 360.483 388.337 360.006 388.337ZM366.132 388.349C365.718 388.349 365.343 388.273 365.007 388.119C364.672 387.963 364.407 387.737 364.211 387.442C364.017 387.146 363.921 386.784 363.921 386.355C363.921 385.986 363.992 385.682 364.134 385.443C364.276 385.205 364.468 385.016 364.709 384.876C364.951 384.737 365.221 384.632 365.519 384.561C365.817 384.49 366.121 384.436 366.431 384.399C366.823 384.354 367.141 384.317 367.385 384.288C367.63 384.257 367.807 384.207 367.918 384.139C368.029 384.071 368.084 383.96 368.084 383.807V383.777C368.084 383.405 367.979 383.117 367.769 382.912C367.561 382.707 367.252 382.605 366.84 382.605C366.411 382.605 366.073 382.7 365.826 382.891C365.581 383.078 365.412 383.287 365.319 383.517L364.121 383.244C364.263 382.847 364.471 382.526 364.743 382.281C365.019 382.034 365.336 381.855 365.694 381.744C366.051 381.631 366.428 381.574 366.823 381.574C367.084 381.574 367.361 381.605 367.654 381.668C367.949 381.727 368.225 381.838 368.48 382C368.739 382.162 368.951 382.394 369.115 382.695C369.28 382.993 369.363 383.381 369.363 383.858V388.205H368.118V387.31H368.067C367.985 387.474 367.861 387.636 367.696 387.795C367.532 387.955 367.32 388.087 367.061 388.192C366.803 388.297 366.493 388.349 366.132 388.349ZM366.409 387.327C366.762 387.327 367.063 387.257 367.313 387.118C367.566 386.979 367.757 386.797 367.888 386.572C368.022 386.345 368.088 386.102 368.088 385.844V385C368.043 385.045 367.955 385.088 367.824 385.128C367.696 385.165 367.55 385.197 367.385 385.226C367.221 385.251 367.06 385.276 366.904 385.298C366.748 385.318 366.617 385.335 366.512 385.349C366.265 385.381 366.039 385.433 365.834 385.507C365.632 385.581 365.471 385.688 365.348 385.827C365.229 385.963 365.169 386.145 365.169 386.372C365.169 386.688 365.286 386.926 365.519 387.088C365.752 387.247 366.049 387.327 366.409 387.327ZM371.06 388.205V381.659H372.291V382.699H372.359C372.479 382.347 372.689 382.07 372.99 381.868C373.294 381.663 373.638 381.561 374.021 381.561C374.101 381.561 374.195 381.564 374.303 381.57C374.413 381.575 374.5 381.582 374.562 381.591V382.81C374.511 382.795 374.42 382.78 374.29 382.763C374.159 382.743 374.028 382.733 373.898 382.733C373.597 382.733 373.328 382.797 373.092 382.925C372.859 383.05 372.675 383.224 372.538 383.449C372.402 383.67 372.334 383.923 372.334 384.207V388.205H371.06Z" fill="#2C232E"/>
<rect width="375" height="69" transform="translate(32 406)" fill="white"/>
<path d="M136 440.5C136 429.454 144.954 420.5 156 420.5H193C204.046 420.5 213 429.454 213 440.5C213 451.546 204.046 460.5 193 460.5H156C144.954 460.5 136 451.546 136 440.5Z" fill="#BEAAFF"/>
<path d="M159.072 438.493C159.019 438.022 158.8 437.658 158.416 437.399C158.032 437.137 157.548 437.006 156.964 437.006C156.547 437.006 156.185 437.073 155.881 437.205C155.576 437.335 155.339 437.513 155.17 437.742C155.004 437.968 154.921 438.224 154.921 438.513C154.921 438.755 154.977 438.964 155.09 439.139C155.206 439.315 155.357 439.462 155.542 439.582C155.731 439.698 155.934 439.795 156.149 439.875C156.364 439.951 156.572 440.014 156.77 440.064L157.765 440.322C158.09 440.402 158.423 440.51 158.764 440.646C159.105 440.781 159.422 440.96 159.714 441.183C160.005 441.405 160.241 441.68 160.42 442.008C160.602 442.336 160.693 442.729 160.693 443.186C160.693 443.763 160.544 444.275 160.246 444.722C159.951 445.17 159.521 445.523 158.958 445.781C158.398 446.04 157.72 446.169 156.925 446.169C156.162 446.169 155.503 446.048 154.946 445.806C154.389 445.564 153.953 445.221 153.638 444.777C153.323 444.33 153.149 443.799 153.116 443.186H154.657C154.687 443.554 154.807 443.861 155.015 444.106C155.228 444.348 155.498 444.528 155.826 444.648C156.157 444.764 156.52 444.822 156.915 444.822C157.349 444.822 157.735 444.754 158.073 444.618C158.414 444.479 158.683 444.286 158.878 444.041C159.074 443.793 159.172 443.503 159.172 443.171C159.172 442.87 159.086 442.623 158.913 442.43C158.744 442.238 158.514 442.079 158.222 441.953C157.934 441.827 157.607 441.716 157.243 441.62L156.04 441.292C155.224 441.07 154.578 440.743 154.101 440.312C153.627 439.882 153.39 439.312 153.39 438.602C153.39 438.016 153.549 437.504 153.867 437.066C154.185 436.629 154.616 436.289 155.16 436.047C155.703 435.802 156.316 435.679 156.999 435.679C157.689 435.679 158.297 435.8 158.824 436.042C159.354 436.284 159.772 436.617 160.077 437.041C160.381 437.462 160.541 437.946 160.554 438.493H159.072ZM165.701 446.154C164.948 446.154 164.3 445.993 163.757 445.672C163.217 445.347 162.799 444.891 162.504 444.305C162.212 443.715 162.066 443.024 162.066 442.232C162.066 441.449 162.212 440.76 162.504 440.163C162.799 439.567 163.21 439.101 163.737 438.766C164.267 438.432 164.887 438.264 165.596 438.264C166.027 438.264 166.445 438.335 166.849 438.478C167.253 438.621 167.616 438.844 167.938 439.149C168.259 439.454 168.513 439.85 168.699 440.337C168.884 440.821 168.977 441.41 168.977 442.102V442.629H162.907V441.516H167.52C167.52 441.125 167.441 440.778 167.282 440.477C167.123 440.172 166.899 439.931 166.61 439.756C166.325 439.58 165.991 439.492 165.606 439.492C165.189 439.492 164.824 439.595 164.512 439.8C164.204 440.003 163.966 440.268 163.797 440.596C163.631 440.921 163.548 441.274 163.548 441.655V442.525C163.548 443.035 163.637 443.469 163.816 443.827C163.999 444.185 164.252 444.459 164.577 444.648C164.902 444.833 165.281 444.926 165.716 444.926C165.997 444.926 166.254 444.886 166.486 444.807C166.718 444.724 166.919 444.601 167.088 444.439C167.257 444.277 167.386 444.076 167.475 443.837L168.882 444.091C168.77 444.505 168.568 444.868 168.276 445.18C167.988 445.488 167.625 445.728 167.187 445.901C166.753 446.07 166.257 446.154 165.701 446.154ZM172.113 435.818V446H170.626V435.818H172.113ZM175.599 435.818V446H174.113V435.818H175.599Z" fill="#2C232E"/>
<path d="M182.5 440.5H195" stroke="#2C232E" stroke-width="1.3" stroke-linecap="round" stroke-linejoin="round"/>
<path d="M225 440.5C225 429.454 233.954 420.5 245 420.5H283C294.046 420.5 303 429.454 303 440.5C303 451.546 294.046 460.5 283 460.5H245C233.954 460.5 225 451.546 225 440.5Z" fill="#BEAAFF"/>
<path d="M242.411 446V435.818H246.139C246.862 435.818 247.46 435.937 247.934 436.176C248.408 436.411 248.763 436.731 248.998 437.136C249.233 437.537 249.351 437.989 249.351 438.493C249.351 438.917 249.273 439.275 249.117 439.567C248.962 439.855 248.753 440.087 248.491 440.263C248.232 440.435 247.947 440.561 247.636 440.641V440.74C247.974 440.757 248.304 440.866 248.625 441.068C248.95 441.267 249.218 441.55 249.43 441.918C249.643 442.286 249.749 442.734 249.749 443.261C249.749 443.781 249.626 444.248 249.381 444.663C249.139 445.074 248.764 445.4 248.257 445.642C247.75 445.881 247.102 446 246.313 446H242.411ZM243.947 444.683H246.164C246.9 444.683 247.427 444.54 247.745 444.255C248.063 443.97 248.222 443.614 248.222 443.186C248.222 442.865 248.141 442.57 247.979 442.301C247.816 442.033 247.584 441.819 247.283 441.66C246.984 441.501 246.63 441.421 246.219 441.421H243.947V444.683ZM243.947 440.223H246.005C246.35 440.223 246.66 440.157 246.935 440.024C247.213 439.892 247.434 439.706 247.596 439.467C247.762 439.225 247.845 438.94 247.845 438.612C247.845 438.191 247.697 437.838 247.402 437.553C247.107 437.268 246.655 437.126 246.045 437.126H243.947V440.223ZM256.289 442.833V438.364H257.78V446H256.319V444.678H256.239C256.063 445.085 255.782 445.425 255.394 445.697C255.009 445.965 254.531 446.099 253.957 446.099C253.467 446.099 253.032 445.992 252.655 445.776C252.28 445.558 251.985 445.234 251.77 444.807C251.557 444.379 251.451 443.851 251.451 443.221V438.364H252.938V443.042C252.938 443.562 253.082 443.977 253.37 444.285C253.659 444.593 254.033 444.747 254.494 444.747C254.772 444.747 255.049 444.678 255.324 444.538C255.603 444.399 255.833 444.189 256.015 443.907C256.201 443.625 256.292 443.267 256.289 442.833ZM260.717 448.864C260.495 448.864 260.293 448.845 260.111 448.809C259.928 448.776 259.793 448.739 259.703 448.7L260.061 447.482C260.333 447.554 260.575 447.586 260.787 447.576C260.999 447.566 261.186 447.487 261.349 447.337C261.514 447.188 261.66 446.945 261.786 446.607L261.97 446.099L259.176 438.364H260.767L262.701 444.29H262.78L264.714 438.364H266.31L263.163 447.019C263.017 447.417 262.832 447.753 262.606 448.028C262.381 448.307 262.113 448.516 261.801 448.655C261.489 448.794 261.128 448.864 260.717 448.864Z" fill="#2C232E"/>
<path d="M272.5 440.5H285.5" stroke="#2C232E" stroke-width="1.3" stroke-linecap="round" stroke-linejoin="round"/>
<path d="M279 434V447" stroke="#2C232E" stroke-width="1.3" stroke-linecap="round" stroke-linejoin="round"/>
</g>
</g>
<defs>
<filter id="filter0_d_9043_270120" x="0" y="0" width="423" height="508" filterUnits="userSpaceOnUse" color-interpolation-filters="sRGB">
<feFlood flood-opacity="0" result="BackgroundImageFix"/>
<feColorMatrix in="SourceAlpha" type="matrix" values="0 0 0 0 0 0 0 0 0 0 0 0 0 0 0 0 0 0 127 0" result="hardAlpha"/>
<feOffset dx="-8" dy="8"/>
<feGaussianBlur stdDeviation="12"/>
<feColorMatrix type="matrix" values="0 0 0 0 0.172549 0 0 0 0 0.137255 0 0 0 0 0.180392 0 0 0 0.32 0"/>
<feBlend mode="normal" in2="BackgroundImageFix" result="effect1_dropShadow_9043_270120"/>
<feBlend mode="normal" in="SourceGraphic" in2="effect1_dropShadow_9043_270120" result="shape"/>
</filter>
<clipPath id="clip0_9043_270120">
<path d="M32 24C32 19.5817 35.5817 16 40 16H399C403.418 16 407 19.5817 407 24V468C407 472.418 403.418 476 399 476H40C35.5817 476 32 472.418 32 468V24Z" fill="white"/>
</clipPath>
<clipPath id="clip1_9043_270120">
<rect width="375" height="812" fill="white" transform="translate(32 16)"/>
</clipPath>
</defs>
</svg>
